<svg viewBox="0 0 16 10">
    <path fill-rule="evenodd" clip-rule="evenodd" d="M12.7382 3.5316L14.1283 0.751406L13.1221 0.248291L11.7848 2.92281C9.5762 1.74482 6.77428 1.69445 4.51497 2.77169L3.25327 0.248291L2.24704 0.751406L3.5379 3.33313C1.91354 4.44375 0.727989 6.24818 0.529539 8.74643C0.496741 9.15938 0.835936 9.49988 1.25015 9.49988H14.7502C15.1644 9.49988 15.5035 9.15938 15.4708 8.74643C15.2837 6.3918 14.2198 4.65353 12.7382 3.5316ZM5.00015 7.24988C4.80124 7.24988 4.61048 7.17083 4.46982 7.0302C4.32917 6.8895 4.25015 6.69878 4.25015 6.49988C4.25015 6.3009 4.32917 6.11018 4.46982 5.96955C4.61048 5.82885 4.80124 5.74988 5.00015 5.74988C5.19906 5.74988 5.38983 5.82885 5.53048 5.96955C5.67113 6.11018 5.75015 6.3009 5.75015 6.49988C5.75015 6.69878 5.67113 6.8895 5.53048 7.0302C5.38983 7.17083 5.19906 7.24988 5.00015 7.24988ZM11.0002 7.24988C10.8013 7.24988 10.6105 7.17083 10.4698 7.0302C10.3292 6.8895 10.2502 6.69878 10.2502 6.49988C10.2502 6.3009 10.3292 6.11018 10.4698 5.96955C10.6105 5.82885 10.8013 5.74988 11.0002 5.74988C11.1991 5.74988 11.3899 5.82885 11.5305 5.96955C11.6711 6.11018 11.7502 6.3009 11.7502 6.49988C11.7502 6.69878 11.6711 6.8895 11.5305 7.0302C11.3899 7.17083 11.1991 7.24988 11.0002 7.24988Z"/>
</svg>
