<svg viewBox="0 0 14 16">
    <path d="M11.2729 8.72058C11.2952 10.9915 13.3554 11.7438 13.375 11.7573C13.3592 11.811 13.0513 12.8362 12.2957 13.8891C11.6412 14.8013 10.9661 15.7119 9.89867 15.7312C8.84605 15.7489 8.51252 15.1336 7.31462 15.1362C6.11342 15.1362 5.74022 15.7161 4.74847 15.75C3.71537 15.7885 2.93035 14.7643 2.27589 13.8547C0.928351 11.9954 -0.0992989 8.59661 1.27762 6.29555C1.96526 5.15413 3.18985 4.43573 4.5178 4.41489C5.53187 4.39822 6.48662 5.06453 7.10192 5.06453C7.72097 5.06453 8.8819 4.26381 10.1033 4.37894C10.6114 4.39874 12.0449 4.57482 12.967 5.86316C12.8924 5.90588 11.255 6.81964 11.2729 8.72058ZM9.30137 3.14843C8.7568 3.78088 7.86025 4.27683 6.98387 4.20911C6.86252 3.35057 7.30157 2.45139 7.8091 1.88876C8.37272 1.25683 9.32642 0.785364 10.1141 0.750977C10.2153 1.63192 9.84542 2.51339 9.30137 3.14843Z"/>
</svg>
