<svg viewBox="0 0 18 18">
    <path fill-rule="evenodd" clip-rule="evenodd" d="M11.625 3.375V4.875H12.75V3.375H13.5C14.1213 3.375 14.625 3.87868 14.625 4.5V6.01171H3.375V4.5C3.375 3.87868 3.87868 3.375 4.5 3.375H5.25V4.875H6.375V3.375H11.625ZM3.375 7.13671V13.5C3.375 14.1213 3.87868 14.625 4.5 14.625H13.5C14.1213 14.625 14.625 14.1213 14.625 13.5V7.13671H3.375ZM4.5 2.25H5.25V0.75H6.375V2.25H11.625V0.75H12.75V2.25H13.5C14.7427 2.25 15.75 3.25736 15.75 4.5V13.5C15.75 14.7427 14.7427 15.75 13.5 15.75H4.5C3.25736 15.75 2.25 14.7427 2.25 13.5V4.5C2.25 3.25736 3.25736 2.25 4.5 2.25Z"/>
</svg>
