<svg viewBox="0 0 32 32">
    <path fill-rule="evenodd" clip-rule="evenodd" d="M6.06012 8.97344C5.3335 10.3995 5.3335 12.2664 5.3335 16C5.3335 19.7338 5.3335 21.6006 6.06012 23.0267C6.69927 24.2811 7.71915 25.301 8.97356 25.94C10.3996 26.6667 12.2665 26.6667 16.0002 26.6667C19.7339 26.6667 21.6007 26.6667 23.0268 25.94C24.2812 25.301 25.3011 24.2811 25.9402 23.0267C26.6668 21.6006 26.6668 19.7338 26.6668 16C26.6668 12.2664 26.6668 10.3995 25.9402 8.97344C25.3011 7.71903 24.2812 6.69915 23.0268 6.06C21.6007 5.33337 19.7339 5.33337 16.0002 5.33337C12.2665 5.33337 10.3996 5.33337 8.97356 6.06C7.71915 6.69915 6.69927 7.71903 6.06012 8.97344ZM20.0002 10.6667C20.0002 9.93033 20.5971 9.33337 21.3335 9.33337C22.0699 9.33337 22.6668 9.93033 22.6668 10.6667C22.6668 11.4031 22.0699 12 21.3335 12C20.5971 12 20.0002 11.4031 20.0002 10.6667ZM11.9168 16C11.9168 13.7448 13.745 11.9167 16.0002 11.9167C18.2554 11.9167 20.0835 13.7448 20.0835 16C20.0835 18.2552 18.2554 20.0834 16.0002 20.0834C13.745 20.0834 11.9168 18.2552 11.9168 16Z"/>
</svg>
