<svg viewBox="0 0 14 14">
    <path fill-rule="evenodd" clip-rule="evenodd" d="M0.8407 0.250698C0.831355 0.250233 0.821957 0.25 0.8125 0.25C0.501843 0.25 0.25 0.501843 0.25 0.8125V2.13821C0.25 8.5504 5.44993 13.7483 11.8619 13.7483H13.1878C13.4985 13.7483 13.7503 13.4964 13.7503 13.1858C13.7503 13.176 13.7501 13.1664 13.7495 13.1568V10.4798C13.7495 10.2473 13.6065 10.0387 13.3895 9.955L10.2025 8.72522C10.0136 8.65232 9.80005 8.6866 9.64345 8.815L6.67158 11.2509C5.03843 10.3189 3.6799 8.96065 2.74771 7.32775L5.18489 4.35676C5.31342 4.20006 5.34774 3.98634 5.2747 3.7973L4.04356 0.610487C3.9598 0.393662 3.7513 0.250698 3.51886 0.250698H0.8407ZM2.20011 6.2215L4.10711 3.89679L3.13315 1.3757H1.375V2.13821C1.375 3.58665 1.66882 4.96651 2.20011 6.2215ZM11.8619 12.6233C10.4134 12.6233 9.0334 12.3296 7.7782 11.7984L10.1032 9.89275L12.6245 10.8656V12.6233H11.8619Z"/>
</svg>
