<svg viewBox="0 0 18 18">
    <path fill-rule="evenodd" clip-rule="evenodd" d="M14.25 4.125H3.75C3.12868 4.125 2.625 4.62868 2.625 5.25V9.23243L5.2513 6.89794C5.45789 6.71431 5.76727 6.70798 5.9812 6.883L9.76507 9.9789L10.9125 9.11835C11.1211 8.9619 11.4098 8.96932 11.6101 9.1362L15.375 12.2737V5.25C15.375 4.62868 14.8713 4.125 14.25 4.125ZM15.0889 13.4996L11.2316 10.2853L10.0875 11.1433C9.88042 11.2987 9.59415 11.2926 9.39382 11.1287L5.64012 8.05755L2.625 10.7376V12.75C2.625 13.3713 3.12868 13.875 3.75 13.875H14.25C14.5834 13.875 14.8828 13.73 15.0889 13.4996ZM3.75 3C2.50736 3 1.5 4.00736 1.5 5.25V12.75C1.5 13.9927 2.50736 15 3.75 15H14.25C15.4927 15 16.5 13.9927 16.5 12.75V5.25C16.5 4.00736 15.4927 3 14.25 3H3.75ZM10.5 6.375C10.5 5.75368 11.0037 5.25 11.625 5.25C12.2463 5.25 12.75 5.75368 12.75 6.375C12.75 6.99632 12.2463 7.5 11.625 7.5C11.0037 7.5 10.5 6.99632 10.5 6.375Z"/>
</svg>
