<svg width="378" height="378" viewBox="0 0 378 378" fill="none" xmlns="http://www.w3.org/2000/svg">
    <path d="M188.894 370.787C165.007 370.787 141.354 366.082 119.286 356.942C97.2174 347.8 77.1657 334.402 60.2753 317.512C43.3849 300.621 29.9868 280.57 20.8456 258.502C11.7049 236.433 7 212.78 7 188.894C7 165.007 11.7049 141.354 20.8456 119.286C29.9868 97.2174 43.3849 77.1657 60.2753 60.2753C77.1657 43.3849 97.2174 29.9868 119.286 20.8456C141.354 11.7049 165.007 7 188.894 7C212.78 7 236.433 11.7049 258.501 20.8461C280.57 29.9868 300.621 43.3849 317.512 60.2753C334.402 77.1657 347.802 97.2174 356.942 119.286C366.083 141.354 370.789 165.007 370.789 188.894C370.789 212.78 366.083 236.433 356.942 258.502C347.802 280.57 334.402 300.621 317.512 317.512C300.621 334.402 280.57 347.8 258.501 356.942C236.433 366.083 212.78 370.787 188.894 370.787Z" stroke="#F0F3FF" stroke-width="13.906" stroke-linecap="round"/>
    <path d="M188.893 171.197C203.555 171.197 215.44 159.311 215.44 144.65C215.44 129.989 203.555 118.104 188.893 118.104C174.232 118.104 162.347 129.989 162.347 144.65C162.347 159.311 174.232 171.197 188.893 171.197Z" fill="#DBDFF1"/>
    <path d="M179.553 153.498H199.217V155.464H179.553V153.498ZM179.553 139.733L184.469 143.174L189.385 136.783L194.3 143.174L199.217 139.733V151.532H179.553V139.733ZM181.519 143.51V149.565H197.25V143.51L193.888 145.863L189.385 140.008L184.882 145.863L181.519 143.509V143.51Z" fill="#383874"/>
    <path d="M153.2 212.484C152.854 211.036 152.224 209.951 151.312 209.227C150.399 208.504 149.125 208.142 147.489 208.142C145.004 208.142 143.147 209.101 141.92 211.02C140.693 212.909 140.048 216.055 139.986 220.46C140.803 219.075 141.999 218.005 143.572 217.25C145.145 216.495 146.844 216.117 148.669 216.117C150.746 216.117 152.57 216.574 154.143 217.486C155.748 218.367 156.991 219.657 157.872 221.356C158.784 223.055 159.24 225.084 159.24 227.444C159.24 229.647 158.8 231.613 157.919 233.344C157.069 235.074 155.795 236.442 154.096 237.449C152.397 238.425 150.352 238.912 147.961 238.912C144.72 238.912 142.172 238.204 140.316 236.788C138.491 235.342 137.201 233.312 136.446 230.701C135.722 228.089 135.36 224.833 135.36 220.932C135.36 209.416 139.419 203.658 147.536 203.658C150.683 203.658 153.152 204.508 154.946 206.207C156.771 207.906 157.84 209.998 158.155 212.484H153.2ZM147.489 220.648C145.57 220.648 143.934 221.23 142.581 222.394C141.259 223.527 140.599 225.179 140.599 227.35C140.599 229.521 141.212 231.252 142.439 232.541C143.698 233.8 145.444 234.429 147.678 234.429C149.66 234.429 151.217 233.816 152.35 232.589C153.514 231.361 154.096 229.725 154.096 227.68C154.096 225.541 153.53 223.842 152.397 222.583C151.296 221.293 149.66 220.648 147.489 220.648ZM163.581 231.739V227.68L179.438 204.933H185.951V227.067H190.34V231.739H185.951V238.912H180.665V231.739H163.581ZM180.901 210.407L169.763 227.067H180.901V210.407ZM200.668 232.447L194.957 245.472H191.465L194.816 232.447H200.668ZM203.829 213.003C204.018 210.077 205.135 207.796 207.18 206.16C209.256 204.524 211.9 203.706 215.108 203.706C217.311 203.706 219.214 204.099 220.819 204.886C222.424 205.672 223.635 206.742 224.453 208.094C225.271 209.447 225.68 210.974 225.68 212.673C225.68 214.623 225.161 216.29 224.122 217.675C223.084 219.059 221.842 219.987 220.394 220.46V220.648C222.251 221.215 223.698 222.253 224.736 223.763C225.775 225.242 226.293 227.146 226.293 229.474C226.293 231.33 225.869 232.982 225.019 234.429C224.17 235.876 222.911 237.025 221.244 237.874C219.576 238.692 217.579 239.101 215.25 239.101C211.852 239.101 209.052 238.236 206.85 236.506C204.679 234.744 203.515 232.227 203.357 228.954H208.549C208.674 230.622 209.319 231.991 210.484 233.06C211.648 234.098 213.221 234.618 215.203 234.618C217.122 234.618 218.601 234.098 219.639 233.06C220.678 231.991 221.196 230.622 221.196 228.954C221.196 226.752 220.489 225.195 219.073 224.282C217.688 223.338 215.549 222.867 212.655 222.867H211.427V218.43H212.702C215.25 218.399 217.185 217.974 218.507 217.156C219.859 216.338 220.536 215.048 220.536 213.286C220.536 211.776 220.048 210.58 219.073 209.699C218.097 208.787 216.713 208.331 214.92 208.331C213.158 208.331 211.789 208.787 210.814 209.699C209.838 210.58 209.256 211.682 209.067 213.003H203.829Z" fill="#383874"/>
    <path d="M137.397 194.307V187.317H139.549C140.163 187.317 140.712 187.456 141.195 187.734C141.682 188.01 142.061 188.403 142.333 188.915C142.605 189.424 142.741 190.004 142.741 190.654V190.975C142.741 191.625 142.606 192.202 142.338 192.708C142.072 193.214 141.696 193.606 141.21 193.884C140.723 194.163 140.174 194.304 139.563 194.307H137.397ZM138.838 188.483V193.15H139.534C140.097 193.15 140.528 192.966 140.826 192.598C141.123 192.229 141.275 191.703 141.282 191.018V190.648C141.282 189.938 141.135 189.4 140.84 189.035C140.545 188.668 140.115 188.483 139.549 188.483H138.838ZM147.466 190.466L148.921 187.317H150.495L148.2 191.772V194.307H146.736V191.772L144.441 187.317H146.021L147.466 190.466ZM158.293 194.307H156.852L154.049 189.708V194.307H152.608V187.317H154.049L156.858 191.926V187.317H158.293V194.307ZM165.058 192.866H162.533L162.053 194.307H160.521L163.124 187.317H164.458L167.075 194.307H165.543L165.058 192.866ZM162.922 191.7H164.669L163.79 189.083L162.922 191.7ZM171.084 187.317L172.88 192.387L174.665 187.317H176.557V194.307H175.112V192.396L175.256 189.098L173.369 194.307H172.38L170.498 189.103L170.643 192.396V194.307H169.202V187.317H171.084ZM180.821 194.307H179.381V187.317H180.821V194.307ZM189.123 191.978C189.069 192.731 188.79 193.323 188.288 193.754C187.788 194.186 187.129 194.403 186.309 194.403C185.414 194.403 184.708 194.102 184.192 193.5C183.68 192.895 183.424 192.066 183.424 191.013V190.586C183.424 189.914 183.542 189.322 183.779 188.81C184.016 188.298 184.354 187.906 184.792 187.634C185.234 187.358 185.746 187.221 186.329 187.221C187.135 187.221 187.785 187.437 188.278 187.869C188.771 188.301 189.056 188.907 189.133 189.689H187.692C187.657 189.237 187.531 188.911 187.313 188.709C187.099 188.504 186.77 188.402 186.329 188.402C185.849 188.402 185.489 188.574 185.248 188.92C185.012 189.263 184.89 189.795 184.884 190.519V191.047C184.884 191.802 184.997 192.354 185.225 192.703C185.455 193.052 185.817 193.227 186.309 193.227C186.755 193.227 187.086 193.126 187.303 192.924C187.524 192.719 187.651 192.404 187.682 191.978H189.123ZM195.168 192.473C195.168 192.201 195.072 191.993 194.88 191.849C194.688 191.702 194.342 191.548 193.843 191.388C193.344 191.225 192.948 191.065 192.657 190.908C191.863 190.479 191.466 189.901 191.466 189.174C191.466 188.797 191.572 188.461 191.783 188.166C191.998 187.869 192.304 187.637 192.701 187.47C193.1 187.304 193.548 187.221 194.045 187.221C194.544 187.221 194.989 187.312 195.379 187.494C195.77 187.674 196.072 187.928 196.287 188.258C196.504 188.587 196.613 188.962 196.613 189.381H195.173C195.173 189.061 195.072 188.813 194.87 188.637C194.668 188.458 194.386 188.368 194.021 188.368C193.668 188.368 193.395 188.443 193.199 188.593C193.004 188.741 192.907 188.936 192.907 189.179C192.907 189.407 193.02 189.597 193.248 189.751C193.478 189.905 193.816 190.048 194.261 190.183C195.08 190.429 195.677 190.735 196.051 191.1C196.426 191.465 196.613 191.919 196.613 192.463C196.613 193.068 196.384 193.543 195.926 193.889C195.469 194.232 194.853 194.403 194.078 194.403C193.541 194.403 193.051 194.305 192.609 194.11C192.167 193.912 191.83 193.641 191.596 193.298C191.366 192.956 191.25 192.559 191.25 192.108H192.695C192.695 192.879 193.156 193.265 194.078 193.265C194.421 193.265 194.688 193.196 194.88 193.059C195.072 192.918 195.168 192.723 195.168 192.473ZM207.964 188.483H205.823V194.307H204.383V188.483H202.271V187.317H207.964V188.483ZM215.872 190.97C215.872 191.658 215.75 192.262 215.507 192.78C215.264 193.298 214.915 193.698 214.461 193.98C214.009 194.262 213.491 194.403 212.905 194.403C212.326 194.403 211.809 194.263 211.355 193.985C210.9 193.707 210.548 193.31 210.298 192.794C210.049 192.276 209.922 191.681 209.919 191.009V190.663C209.919 189.975 210.042 189.37 210.288 188.848C210.538 188.323 210.889 187.922 211.34 187.643C211.795 187.362 212.313 187.221 212.895 187.221C213.478 187.221 213.995 187.362 214.446 187.643C214.901 187.922 215.251 188.323 215.497 188.848C215.747 189.37 215.872 189.973 215.872 190.658V190.97ZM214.412 190.654C214.412 189.92 214.281 189.363 214.019 188.983C213.756 188.602 213.382 188.411 212.895 188.411C212.412 188.411 212.04 188.6 211.777 188.978C211.515 189.352 211.382 189.903 211.378 190.629V190.97C211.378 191.684 211.51 192.237 211.772 192.631C212.035 193.025 212.412 193.222 212.905 193.222C213.389 193.222 213.76 193.033 214.019 192.655C214.278 192.275 214.41 191.721 214.412 190.994V190.654ZM218.393 194.307V187.317H220.544C221.159 187.317 221.707 187.456 222.191 187.734C222.677 188.01 223.056 188.403 223.329 188.915C223.601 189.424 223.737 190.004 223.737 190.654V190.975C223.737 191.625 223.602 192.202 223.334 192.708C223.068 193.214 222.692 193.606 222.205 193.884C221.719 194.163 221.17 194.304 220.559 194.307H218.393ZM219.833 188.483V193.15H220.53C221.093 193.15 221.524 192.966 221.821 192.598C222.119 192.229 222.271 191.703 222.278 191.018V190.648C222.278 189.938 222.13 189.4 221.836 189.035C221.541 188.668 221.111 188.483 220.544 188.483H219.833ZM230.104 192.866H227.578L227.098 194.307H225.567L228.169 187.317H229.504L232.12 194.307H230.588L230.104 192.866ZM227.967 191.7H229.715L228.836 189.083L227.967 191.7ZM235.938 190.466L237.392 187.317H238.967L236.672 191.772V194.307H235.208V191.772L232.913 187.317H234.492L235.938 190.466Z" fill="#5A5A89"/>
    <path d="M229.022 209.333C229.022 208.238 229.34 207.38 229.974 206.76C230.623 206.139 231.452 205.829 232.462 205.829C233.471 205.829 234.293 206.139 234.928 206.76C235.576 207.38 235.901 208.238 235.901 209.333C235.901 210.444 235.576 211.309 234.928 211.929C234.293 212.549 233.471 212.859 232.462 212.859C231.452 212.859 230.623 212.549 229.974 211.929C229.34 211.309 229.022 210.444 229.022 209.333ZM242.909 206.089L234.408 221.23H231.467L239.946 206.089H242.909ZM232.44 207.646C231.647 207.646 231.251 208.209 231.251 209.333C231.251 210.473 231.647 211.043 232.44 211.043C232.829 211.043 233.132 210.905 233.348 210.631C233.565 210.343 233.673 209.91 233.673 209.333C233.673 208.209 233.262 207.646 232.44 207.646ZM238.518 217.964C238.518 216.854 238.835 215.996 239.47 215.39C240.118 214.77 240.948 214.46 241.957 214.46C242.967 214.46 243.782 214.77 244.401 215.39C245.036 215.996 245.353 216.854 245.353 217.964C245.353 219.075 245.036 219.939 244.401 220.56C243.782 221.18 242.967 221.49 241.957 221.49C240.934 221.49 240.104 221.18 239.47 220.56C238.835 219.939 238.518 219.075 238.518 217.964ZM241.936 216.277C241.114 216.277 240.703 216.839 240.703 217.964C240.703 219.103 241.114 219.673 241.936 219.673C242.743 219.673 243.147 219.103 243.147 217.964C243.147 216.839 242.743 216.277 241.936 216.277Z" fill="#383874"/>
    <!--<path d="M188.894 370.787C162.636 370.787 136.691 365.103 112.84 354.124C88.988 343.145 67.796 327.134 50.7201 307.188C33.6442 287.242 21.0888 263.835 13.9166 238.577C6.74492 213.318 5.12663 186.807 9.1726 160.863" stroke="url(#paint0_linear_574_4586)" stroke-width="13.906" stroke-linecap="round"/>-->
    <path d="M188.893 351.123C167.589 351.123 146.494 346.927 126.811 338.774C107.128 330.621 89.2441 318.672 74.1796 303.607C59.1156 288.543 47.1655 270.659 39.013 250.976C30.8599 231.294 26.6641 210.198 26.6641 188.893C26.6641 167.589 30.8599 146.494 39.013 126.811C47.1655 107.128 59.1156 89.2446 74.1796 74.1801C89.2441 59.1156 107.128 47.166 126.811 39.013C146.494 30.8605 167.589 26.6641 188.893 26.6641C210.197 26.6641 231.293 30.8605 250.976 39.013C270.659 47.166 288.543 59.1156 303.608 74.1801C318.671 89.2446 330.623 107.129 338.774 126.811C346.925 146.494 351.122 167.589 351.122 188.894C351.122 210.198 346.925 231.294 338.774 250.976C330.623 270.659 318.671 288.543 303.608 303.607C288.542 318.672 270.659 330.621 250.976 338.774C231.293 346.927 210.197 351.123 188.893 351.123Z" stroke="#F0F3FF" stroke-width="13.906" stroke-linecap="round"/>
    <path d="M188.894 351.123C153.225 351.123 118.551 339.368 90.2364 317.677C61.9219 295.986 41.545 265.568 32.2584 231.13C22.9724 196.692 25.2949 160.153 38.8662 127.167C52.4374 94.1818 76.5011 66.588 107.334 48.6562" stroke="#8676FF" stroke-width="13.906" stroke-linecap="round"/>
    <path d="M188.893 331.459C170.171 331.459 151.633 327.771 134.336 320.607C117.039 313.442 101.322 302.941 88.0843 289.702C74.8456 276.464 64.3447 260.747 57.1798 243.451C50.0155 226.154 46.3281 207.615 46.3281 188.893C46.3281 170.171 50.0155 151.633 57.1798 134.336C64.3447 117.039 74.8456 101.323 88.0843 88.0843C101.323 74.8462 117.039 64.3447 134.336 57.1804C151.633 50.0155 170.171 46.3281 188.893 46.3281C207.615 46.3281 226.154 50.0155 243.451 57.1804C260.747 64.3447 276.463 74.8462 289.702 88.0843C302.941 101.323 313.445 117.039 320.605 134.336C327.772 151.633 331.46 170.171 331.46 188.893C331.46 207.615 327.772 226.154 320.605 243.451C313.439 260.747 302.941 276.464 289.702 289.702C276.463 302.941 260.747 313.442 243.45 320.607C226.154 327.771 207.615 331.459 188.893 331.459Z" stroke="#F0F3FF" stroke-width="13.906" stroke-linecap="round"/>
    <path d="M188.893 331.459C167.775 331.459 146.92 326.767 127.837 317.722C108.753 308.678 91.9167 295.507 78.5452 279.16C65.1736 262.814 55.6008 243.702 50.5186 223.204C45.4358 202.706 44.9709 181.335 49.1565 160.636C53.3422 139.936 62.0745 120.425 74.7221 103.513C87.3696 86.6006 103.617 72.7092 122.289 62.8428C140.961 52.9765 161.592 47.3818 182.69 46.4632C203.789 45.5441 224.828 49.3242 244.287 57.5298" stroke="#01F1E3" stroke-width="13.906" stroke-linecap="round"/>
    <path d="M188.894 311.795C172.754 311.795 156.772 308.617 141.861 302.44C126.95 296.264 113.402 287.211 101.989 275.798C90.5769 264.386 81.5239 250.838 75.3478 235.926C69.1716 221.015 65.9922 205.034 65.9922 188.894C65.9922 172.755 69.1716 156.773 75.3478 141.862C81.5239 126.951 90.5769 113.402 101.989 101.99C113.402 90.5778 126.95 81.5249 141.861 75.3482C156.772 69.172 172.754 65.9932 188.894 65.9932C205.033 65.9932 221.015 69.172 235.926 75.3482C250.837 81.5249 264.385 90.5778 275.798 101.99C287.21 113.402 296.263 126.951 302.438 141.862C308.614 156.773 311.793 172.755 311.793 188.895C311.793 205.034 308.614 221.015 302.438 235.926C296.263 250.838 287.21 264.386 275.798 275.798C264.385 287.211 250.837 296.264 235.925 302.44C221.015 308.617 205.033 311.795 188.894 311.795Z" stroke="#F0F3FF" stroke-width="13.906" stroke-linecap="round"/>
    <path d="M188.894 311.795C168.144 311.795 147.733 306.542 129.561 296.525C111.39 286.508 96.0511 272.054 84.9737 254.509C73.8958 236.964 67.4408 216.901 66.2088 196.188C64.9774 175.475 69.0104 154.789 77.931 136.055C86.8516 117.321 100.37 101.151 117.227 89.0518C134.083 76.9523 153.728 69.3174 174.331 66.8592C194.934 64.4003 215.825 67.198 235.054 74.9913C254.284 82.7846 271.228 95.3196 284.307 111.428" stroke="#FFBA69" stroke-width="13.906" stroke-linecap="round"/>
    <path d="M188.893 292.131C175.336 292.131 161.912 289.461 149.386 284.273C136.861 279.084 125.48 271.48 115.894 261.893C106.308 252.307 98.7032 240.926 93.5146 228.401C88.3266 215.876 85.6562 202.452 85.6562 188.894C85.6562 175.337 88.3266 161.912 93.5146 149.387C98.7032 136.862 106.308 125.481 115.894 115.894C125.48 106.308 136.861 98.7036 149.386 93.5156C161.912 88.3276 175.336 85.6572 188.893 85.6572C202.451 85.6572 215.875 88.3276 228.401 93.5156C240.925 98.7036 252.307 106.308 261.893 115.894C271.479 125.481 279.084 136.862 284.272 149.387C289.46 161.912 292.131 175.337 292.131 188.894C292.131 202.452 289.46 215.876 284.272 228.401C279.084 240.926 271.479 252.307 261.893 261.893C252.307 271.48 240.925 279.084 228.401 284.273C215.875 289.461 202.451 292.131 188.893 292.131Z" stroke="#DBDFF1" stroke-width="13.906" stroke-linecap="round"/>
    <path d="M188.894 292.13C166.085 292.13 143.918 284.576 125.855 270.649C107.792 256.721 94.8496 237.203 89.0501 215.143C83.2507 193.084 84.9199 169.725 93.7969 148.714C102.675 127.702 118.26 110.223 138.12 99.0051C157.98 87.7874 180.996 83.462 203.573 86.7054C226.151 89.9487 247.019 100.578 262.918 116.933C278.817 133.288 288.852 154.447 291.456 177.107C294.06 199.768 289.086 222.652 277.312 242.187" stroke="#FF708B" stroke-width="13.906" stroke-linecap="round"/>
    <path d="M213.474 295.081C215.646 295.081 217.407 293.32 217.407 291.148C217.407 288.976 215.646 287.215 213.474 287.215C211.302 287.215 209.541 288.976 209.541 291.148C209.541 293.32 211.302 295.081 213.474 295.081Z" stroke="#FF708B" stroke-width="3.47649"/>
    <path d="M213.474 315.727C215.646 315.727 217.407 313.966 217.407 311.794C217.407 309.622 215.646 307.861 213.474 307.861C211.302 307.861 209.541 309.622 209.541 311.794C209.541 313.966 211.302 315.727 213.474 315.727Z" stroke="#FFBA69" stroke-width="3.47649"/>
    <path d="M213.474 335.391C215.646 335.391 217.407 333.63 217.407 331.458C217.407 329.286 215.646 327.525 213.474 327.525C211.302 327.525 209.541 329.286 209.541 331.458C209.541 333.63 211.302 335.391 213.474 335.391Z" stroke="#01F1E3" stroke-width="3.47649"/>
    <path d="M213.474 354.074C215.646 354.074 217.407 352.313 217.407 350.141C217.407 347.969 215.646 346.208 213.474 346.208C211.302 346.208 209.541 347.969 209.541 350.141C209.541 352.313 211.302 354.074 213.474 354.074Z" stroke="#8676FF" stroke-width="3.47649"/>
    <path d="M213.474 374.72C215.646 374.72 217.407 372.959 217.407 370.787C217.407 368.615 215.646 366.854 213.474 366.854C211.302 366.854 209.541 368.615 209.541 370.787C209.541 372.959 211.302 374.72 213.474 374.72Z" stroke="url(#paint1_linear_574_4586)" stroke-width="3.47649"/>
    <path d="M227.734 290.438C226.786 290.165 226.095 289.832 225.661 289.436C225.23 289.036 225.015 288.545 225.015 287.961C225.015 287.3 225.278 286.755 225.804 286.325C226.334 285.891 227.022 285.674 227.867 285.674C228.443 285.674 228.956 285.785 229.405 286.008C229.858 286.231 230.208 286.538 230.454 286.93C230.703 287.321 230.828 287.75 230.828 288.215H229.716C229.716 287.708 229.555 287.31 229.232 287.022C228.91 286.73 228.454 286.584 227.867 286.584C227.321 286.584 226.895 286.705 226.588 286.947C226.285 287.185 226.133 287.518 226.133 287.944C226.133 288.286 226.277 288.575 226.565 288.814C226.857 289.048 227.35 289.263 228.045 289.459C228.744 289.655 229.29 289.872 229.682 290.11C230.077 290.344 230.369 290.619 230.557 290.934C230.749 291.249 230.845 291.619 230.845 292.046C230.845 292.725 230.581 293.271 230.051 293.682C229.521 294.089 228.812 294.292 227.924 294.292C227.349 294.292 226.811 294.183 226.312 293.964C225.812 293.741 225.426 293.438 225.153 293.054C224.885 292.669 224.75 292.234 224.75 291.746H225.862C225.862 292.253 226.048 292.654 226.421 292.95C226.797 293.242 227.299 293.388 227.924 293.388C228.508 293.388 228.955 293.269 229.267 293.031C229.578 292.793 229.733 292.468 229.733 292.057C229.733 291.646 229.59 291.329 229.302 291.107C229.013 290.88 228.491 290.657 227.734 290.438ZM236.343 294.177C236.282 294.054 236.231 293.835 236.193 293.52C235.698 294.035 235.106 294.292 234.419 294.292C233.804 294.292 233.299 294.12 232.904 293.774C232.512 293.425 232.316 292.983 232.316 292.449C232.316 291.8 232.562 291.297 233.053 290.94C233.549 290.578 234.244 290.398 235.139 290.398H236.176V289.908C236.176 289.536 236.064 289.24 235.842 289.021C235.619 288.798 235.291 288.687 234.857 288.687C234.476 288.687 234.158 288.783 233.9 288.975C233.643 289.167 233.514 289.4 233.514 289.672H232.443C232.443 289.361 232.552 289.061 232.771 288.773C232.994 288.482 233.293 288.251 233.67 288.082C234.05 287.913 234.466 287.829 234.92 287.829C235.638 287.829 236.201 288.009 236.608 288.37C237.015 288.728 237.226 289.221 237.241 289.851V292.72C237.241 293.292 237.314 293.747 237.46 294.085V294.177H236.343ZM234.574 293.365C234.908 293.365 235.225 293.279 235.525 293.106C235.825 292.933 236.041 292.708 236.176 292.431V291.152H235.34C234.035 291.152 233.382 291.535 233.382 292.299C233.382 292.633 233.493 292.895 233.716 293.082C233.939 293.271 234.225 293.365 234.574 293.365ZM240.463 294.177H239.398V285.328H240.463V294.177ZM245.155 294.292C244.31 294.292 243.622 294.016 243.092 293.463C242.562 292.906 242.297 292.163 242.297 291.233V291.038C242.297 290.419 242.414 289.868 242.648 289.384C242.886 288.896 243.217 288.516 243.639 288.243C244.066 287.967 244.527 287.829 245.022 287.829C245.832 287.829 246.462 288.096 246.912 288.629C247.361 289.163 247.586 289.927 247.586 290.922V291.366H243.363C243.378 291.981 243.557 292.478 243.898 292.858C244.244 293.235 244.682 293.422 245.212 293.422C245.589 293.422 245.908 293.346 246.168 293.192C246.43 293.038 246.658 292.835 246.854 292.581L247.505 293.089C246.983 293.891 246.199 294.292 245.155 294.292ZM245.022 288.704C244.592 288.704 244.231 288.862 243.939 289.177C243.647 289.488 243.466 289.926 243.397 290.49H246.52V290.41C246.489 289.868 246.343 289.449 246.082 289.154C245.821 288.854 245.467 288.704 245.022 288.704ZM252.847 292.524C252.847 292.236 252.738 292.013 252.519 291.856C252.304 291.694 251.925 291.556 251.383 291.441C250.846 291.326 250.418 291.188 250.099 291.026C249.784 290.865 249.55 290.673 249.396 290.45C249.246 290.227 249.171 289.962 249.171 289.655C249.171 289.144 249.387 288.712 249.817 288.359C250.25 288.005 250.804 287.829 251.476 287.829C252.183 287.829 252.755 288.011 253.193 288.376C253.634 288.741 253.855 289.207 253.855 289.776H252.783C252.783 289.484 252.659 289.232 252.409 289.021C252.163 288.81 251.852 288.704 251.476 288.704C251.088 288.704 250.784 288.789 250.566 288.958C250.347 289.127 250.237 289.348 250.237 289.62C250.237 289.878 250.339 290.072 250.542 290.202C250.746 290.333 251.113 290.457 251.643 290.577C252.177 290.695 252.609 290.838 252.939 291.003C253.269 291.168 253.513 291.368 253.671 291.602C253.832 291.832 253.913 292.115 253.913 292.449C253.913 293.006 253.69 293.453 253.244 293.791C252.799 294.125 252.221 294.292 251.511 294.292C251.011 294.292 250.569 294.204 250.185 294.028C249.801 293.851 249.5 293.605 249.281 293.29C249.066 292.971 248.959 292.628 248.959 292.259H250.024C250.043 292.616 250.185 292.9 250.45 293.111C250.719 293.319 251.072 293.422 251.511 293.422C251.913 293.422 252.236 293.342 252.479 293.181C252.724 293.016 252.847 292.797 252.847 292.524Z" fill="#383874"/>
    <path d="M227.734 311.086C226.786 310.813 226.095 310.479 225.661 310.083C225.23 309.684 225.015 309.192 225.015 308.609C225.015 307.948 225.278 307.403 225.804 306.972C226.334 306.538 227.022 306.321 227.867 306.321C228.443 306.321 228.956 306.433 229.405 306.655C229.858 306.878 230.208 307.185 230.454 307.577C230.703 307.969 230.828 308.397 230.828 308.862H229.716C229.716 308.355 229.555 307.958 229.232 307.67C228.91 307.378 228.454 307.232 227.867 307.232C227.321 307.232 226.895 307.353 226.588 307.594C226.285 307.833 226.133 308.165 226.133 308.591C226.133 308.933 226.277 309.223 226.565 309.461C226.857 309.695 227.35 309.911 228.045 310.106C228.744 310.302 229.29 310.519 229.682 310.757C230.077 310.992 230.369 311.267 230.557 311.581C230.749 311.896 230.845 312.267 230.845 312.693C230.845 313.373 230.581 313.918 230.051 314.329C229.521 314.736 228.812 314.94 227.924 314.94C227.349 314.94 226.811 314.831 226.312 314.612C225.812 314.389 225.426 314.085 225.153 313.701C224.885 313.317 224.75 312.881 224.75 312.393H225.862C225.862 312.901 226.048 313.302 226.421 313.597C226.797 313.889 227.299 314.035 227.924 314.035C228.508 314.035 228.955 313.917 229.267 313.678C229.578 313.44 229.733 313.116 229.733 312.704C229.733 312.294 229.59 311.977 229.302 311.754C229.013 311.527 228.491 311.304 227.734 311.086ZM236.343 314.824C236.282 314.702 236.231 314.483 236.193 314.168C235.698 314.682 235.106 314.94 234.419 314.94C233.804 314.94 233.299 314.767 232.904 314.422C232.512 314.072 232.316 313.63 232.316 313.096C232.316 312.447 232.562 311.944 233.053 311.587C233.549 311.226 234.244 311.045 235.139 311.045H236.176V310.556C236.176 310.183 236.064 309.888 235.842 309.669C235.619 309.446 235.291 309.334 234.857 309.334C234.476 309.334 234.158 309.43 233.9 309.622C233.643 309.815 233.514 310.047 233.514 310.32H232.443C232.443 310.009 232.552 309.709 232.771 309.421C232.994 309.129 233.293 308.898 233.67 308.73C234.05 308.561 234.466 308.476 234.92 308.476C235.638 308.476 236.201 308.657 236.608 309.018C237.015 309.374 237.226 309.868 237.241 310.498V313.367C237.241 313.939 237.314 314.394 237.46 314.733V314.824H236.343ZM234.574 314.012C234.908 314.012 235.225 313.926 235.525 313.753C235.825 313.581 236.041 313.355 236.176 313.079V311.8H235.34C234.035 311.8 233.382 312.182 233.382 312.946C233.382 313.281 233.493 313.542 233.716 313.73C233.939 313.918 234.225 314.012 234.574 314.012ZM240.463 314.824H239.398V305.976H240.463V314.824ZM245.155 314.94C244.31 314.94 243.622 314.663 243.092 314.111C242.562 313.553 242.297 312.81 242.297 311.881V311.685C242.297 311.066 242.414 310.515 242.648 310.032C242.886 309.544 243.217 309.163 243.639 308.891C244.066 308.614 244.527 308.476 245.022 308.476C245.832 308.476 246.462 308.743 246.912 309.277C247.361 309.811 247.586 310.575 247.586 311.57V312.013H243.363C243.378 312.628 243.557 313.125 243.898 313.505C244.244 313.882 244.682 314.07 245.212 314.07C245.589 314.07 245.908 313.993 246.168 313.84C246.43 313.686 246.658 313.482 246.854 313.229L247.505 313.736C246.983 314.539 246.199 314.94 245.155 314.94ZM245.022 309.352C244.592 309.352 244.231 309.509 243.939 309.824C243.647 310.135 243.466 310.573 243.397 311.138H246.52V311.057C246.489 310.515 246.343 310.097 246.082 309.801C245.821 309.502 245.467 309.352 245.022 309.352ZM252.847 313.171C252.847 312.883 252.738 312.66 252.519 312.503C252.304 312.342 251.925 312.203 251.383 312.088C250.846 311.973 250.418 311.834 250.099 311.673C249.784 311.512 249.55 311.32 249.396 311.097C249.246 310.875 249.171 310.609 249.171 310.302C249.171 309.791 249.387 309.359 249.817 309.006C250.25 308.653 250.804 308.476 251.476 308.476C252.183 308.476 252.755 308.658 253.193 309.023C253.634 309.388 253.855 309.855 253.855 310.423H252.783C252.783 310.131 252.659 309.88 252.409 309.669C252.163 309.457 251.852 309.352 251.476 309.352C251.088 309.352 250.784 309.436 250.566 309.605C250.347 309.774 250.237 309.995 250.237 310.268C250.237 310.525 250.339 310.719 250.542 310.85C250.746 310.98 251.113 311.105 251.643 311.224C252.177 311.343 252.609 311.485 252.939 311.651C253.269 311.815 253.513 312.015 253.671 312.25C253.832 312.48 253.913 312.762 253.913 313.096C253.913 313.653 253.69 314.101 253.244 314.439C252.799 314.773 252.221 314.94 251.511 314.94C251.011 314.94 250.569 314.852 250.185 314.675C249.801 314.498 249.5 314.252 249.281 313.937C249.066 313.618 248.959 313.275 248.959 312.906H250.024C250.043 313.263 250.185 313.548 250.45 313.759C250.719 313.966 251.072 314.07 251.511 314.07C251.913 314.07 252.236 313.989 252.479 313.828C252.724 313.663 252.847 313.444 252.847 313.171ZM260.288 311.541V314.824H259.181V306.437H262.275C263.193 306.437 263.911 306.671 264.43 307.14C264.952 307.608 265.213 308.228 265.213 309C265.213 309.815 264.958 310.442 264.447 310.884C263.94 311.322 263.212 311.541 262.263 311.541H260.288ZM260.288 310.636H262.275C262.866 310.636 263.319 310.498 263.634 310.222C263.95 309.941 264.107 309.538 264.107 309.012C264.107 308.512 263.95 308.113 263.634 307.813C263.319 307.514 262.888 307.359 262.339 307.347H260.288V310.636ZM268.009 314.824H266.943V305.976H268.009V314.824ZM273.961 314.824C273.9 314.702 273.85 314.483 273.811 314.168C273.316 314.682 272.725 314.94 272.037 314.94C271.423 314.94 270.918 314.767 270.522 314.422C270.13 314.072 269.934 313.63 269.934 313.096C269.934 312.447 270.18 311.944 270.672 311.587C271.167 311.226 271.862 311.045 272.758 311.045H273.794V310.556C273.794 310.183 273.683 309.888 273.46 309.669C273.237 309.446 272.909 309.334 272.475 309.334C272.095 309.334 271.776 309.43 271.519 309.622C271.261 309.815 271.133 310.047 271.133 310.32H270.061C270.061 310.009 270.17 309.709 270.39 309.421C270.612 309.129 270.912 308.898 271.288 308.73C271.669 308.561 272.085 308.476 272.539 308.476C273.256 308.476 273.819 308.657 274.227 309.018C274.633 309.374 274.845 309.868 274.86 310.498V313.367C274.86 313.939 274.933 314.394 275.079 314.733V314.824H273.961ZM272.193 314.012C272.527 314.012 272.844 313.926 273.143 313.753C273.443 313.581 273.66 313.355 273.794 313.079V311.8H272.959C271.653 311.8 271 312.182 271 312.946C271 313.281 271.112 313.542 271.334 313.73C271.557 313.918 271.844 314.012 272.193 314.012ZM277.932 308.591L277.967 309.374C278.443 308.775 279.065 308.476 279.833 308.476C281.15 308.476 281.815 309.219 281.826 310.705V314.824H280.761V310.7C280.757 310.251 280.653 309.918 280.45 309.703C280.25 309.488 279.937 309.381 279.511 309.381C279.165 309.381 278.862 309.473 278.601 309.657C278.339 309.841 278.136 310.083 277.99 310.383V314.824H276.924V308.591H277.932Z" fill="#383874"/>
    <path d="M227.072 331.845L227.233 332.95L227.469 331.954L229.128 326.101H230.062L231.68 331.954L231.911 332.968L232.089 331.839L233.392 326.101H234.504L232.47 334.489H231.462L229.733 328.376L229.601 327.737L229.468 328.376L227.676 334.489H226.668L224.641 326.101H225.746L227.072 331.845ZM238.365 334.604C237.52 334.604 236.832 334.327 236.302 333.775C235.772 333.217 235.508 332.474 235.508 331.545V331.349C235.508 330.731 235.625 330.179 235.859 329.696C236.097 329.208 236.427 328.828 236.85 328.555C237.276 328.278 237.737 328.14 238.232 328.14C239.043 328.14 239.672 328.407 240.122 328.941C240.571 329.475 240.796 330.239 240.796 331.234V331.677H236.573C236.589 332.292 236.767 332.789 237.109 333.169C237.455 333.546 237.892 333.734 238.422 333.734C238.799 333.734 239.117 333.657 239.379 333.504C239.64 333.35 239.869 333.147 240.064 332.893L240.715 333.4C240.193 334.203 239.409 334.604 238.365 334.604ZM238.232 329.016C237.802 329.016 237.441 329.173 237.149 329.488C236.857 329.799 236.677 330.237 236.608 330.802H239.73V330.721C239.699 330.179 239.554 329.761 239.292 329.465C239.031 329.166 238.678 329.016 238.232 329.016ZM245.015 334.604C244.17 334.604 243.482 334.327 242.952 333.775C242.422 333.217 242.157 332.474 242.157 331.545V331.349C242.157 330.731 242.274 330.179 242.508 329.696C242.747 329.208 243.077 328.828 243.499 328.555C243.926 328.278 244.386 328.14 244.882 328.14C245.692 328.14 246.323 328.407 246.772 328.941C247.221 329.475 247.446 330.239 247.446 331.234V331.677H243.223C243.238 332.292 243.417 332.789 243.758 333.169C244.104 333.546 244.542 333.734 245.072 333.734C245.449 333.734 245.767 333.657 246.028 333.504C246.29 333.35 246.518 333.147 246.714 332.893L247.365 333.4C246.843 334.203 246.059 334.604 245.015 334.604ZM244.882 329.016C244.452 329.016 244.091 329.173 243.799 329.488C243.507 329.799 243.326 330.237 243.257 330.802H246.38V330.721C246.349 330.179 246.203 329.761 245.942 329.465C245.681 329.166 245.328 329.016 244.882 329.016ZM250.818 331.603L250.149 332.299V334.489H249.083V325.64H250.149V330.992L250.719 330.306L252.661 328.255H253.957L251.532 330.859L254.239 334.489H252.989L250.818 331.603ZM256.609 334.489H255.543V325.64H256.609V334.489ZM260.752 332.927L262.204 328.255H263.345L260.839 335.451C260.451 336.488 259.834 337.006 258.989 337.006L258.788 336.989L258.39 336.914V336.05L258.678 336.073C259.04 336.073 259.32 336 259.519 335.854C259.723 335.708 259.89 335.442 260.02 335.053L260.257 334.419L258.033 328.255H259.197L260.752 332.927ZM269.172 334.489H268.107V325.64H269.172V334.489ZM272.434 334.489H271.369V328.255H272.434V334.489ZM271.282 326.602C271.282 326.429 271.334 326.283 271.438 326.164C271.545 326.045 271.703 325.986 271.91 325.986C272.118 325.986 272.275 326.045 272.383 326.164C272.49 326.283 272.544 326.429 272.544 326.602C272.544 326.775 272.49 326.919 272.383 327.034C272.275 327.149 272.118 327.207 271.91 327.207C271.703 327.207 271.545 327.149 271.438 327.034C271.334 326.919 271.282 326.775 271.282 326.602ZM275.541 328.255L275.57 328.947C276.027 328.409 276.643 328.14 277.419 328.14C278.291 328.14 278.884 328.474 279.199 329.143C279.407 328.843 279.676 328.601 280.006 328.417C280.34 328.232 280.734 328.14 281.187 328.14C282.554 328.14 283.249 328.864 283.272 330.312V334.489H282.207V330.376C282.207 329.93 282.105 329.598 281.901 329.378C281.698 329.156 281.356 329.045 280.876 329.045C280.481 329.045 280.152 329.164 279.891 329.402C279.63 329.636 279.478 329.953 279.436 330.352V334.489H278.364V330.404C278.364 329.498 277.92 329.045 277.034 329.045C276.334 329.045 275.856 329.342 275.599 329.937V334.489H274.533V328.255H275.541ZM286.437 334.489H285.371V328.255H286.437V334.489ZM285.284 326.602C285.284 326.429 285.337 326.283 285.44 326.164C285.547 326.045 285.705 325.986 285.912 325.986C286.12 325.986 286.277 326.045 286.385 326.164C286.493 326.283 286.546 326.429 286.546 326.602C286.546 326.775 286.493 326.919 286.385 327.034C286.277 327.149 286.12 327.207 285.912 327.207C285.705 327.207 285.547 327.149 285.44 327.034C285.337 326.919 285.284 326.775 285.284 326.602ZM289.987 326.746V328.255H291.151V329.079H289.987V332.945C289.987 333.194 290.039 333.383 290.143 333.509C290.246 333.632 290.423 333.694 290.673 333.694C290.795 333.694 290.965 333.671 291.179 333.625V334.489C290.899 334.565 290.626 334.604 290.362 334.604C289.885 334.604 289.526 334.46 289.284 334.172C289.043 333.884 288.921 333.475 288.921 332.945V329.079H287.786V328.255H288.921V326.746H289.987Z" fill="#383874"/>
    <path d="M226.691 344.781L229.434 351.625L232.176 344.781H233.61V353.169H232.504V349.903L232.608 346.377L229.854 353.169H229.007L226.259 346.394L226.368 349.903V353.169H225.263V344.781H226.691ZM235.507 349.995C235.507 349.384 235.626 348.835 235.864 348.347C236.106 347.859 236.441 347.483 236.867 347.218C237.297 346.953 237.786 346.82 238.336 346.82C239.185 346.82 239.87 347.115 240.392 347.702C240.919 348.289 241.182 349.071 241.182 350.047V350.121C241.182 350.728 241.065 351.274 240.831 351.758C240.6 352.237 240.268 352.612 239.834 352.881C239.404 353.15 238.908 353.284 238.347 353.284C237.502 353.284 236.817 352.99 236.291 352.403C235.768 351.816 235.507 351.038 235.507 350.069V349.995ZM236.579 350.121C236.579 350.813 236.738 351.368 237.057 351.787C237.38 352.205 237.81 352.415 238.347 352.415C238.889 352.415 239.319 352.203 239.638 351.78C239.957 351.355 240.116 350.759 240.116 349.995C240.116 349.311 239.953 348.758 239.626 348.336C239.303 347.909 238.874 347.696 238.336 347.696C237.81 347.696 237.385 347.905 237.063 348.324C236.74 348.742 236.579 349.342 236.579 350.121ZM244.357 345.426V346.936H245.521V347.759H244.357V351.625C244.357 351.875 244.409 352.063 244.513 352.19C244.617 352.313 244.793 352.374 245.043 352.374C245.166 352.374 245.335 352.351 245.55 352.305V353.169C245.27 353.246 244.997 353.284 244.732 353.284C244.256 353.284 243.897 353.14 243.655 352.852C243.413 352.564 243.292 352.155 243.292 351.625V347.759H242.157V346.936H243.292V345.426H244.357ZM248.231 347.69C248.703 347.111 249.317 346.82 250.074 346.82C251.392 346.82 252.056 347.564 252.067 349.05V353.169H251.002V349.044C250.998 348.595 250.894 348.263 250.691 348.047C250.49 347.832 250.178 347.725 249.751 347.725C249.406 347.725 249.102 347.817 248.841 348.001C248.58 348.186 248.377 348.428 248.231 348.727V353.169H247.165V344.32H248.231V347.69ZM255.214 353.169H254.148V344.32H255.214V353.169ZM259.358 351.608L260.81 346.936H261.95L259.444 354.131C259.056 355.168 258.44 355.687 257.595 355.687L257.393 355.669L256.996 355.595V354.73L257.284 354.753C257.645 354.753 257.926 354.68 258.125 354.535C258.328 354.389 258.496 354.122 258.627 353.734L258.862 353.1L256.639 346.936H257.802L259.358 351.608ZM267.778 353.169H266.712V344.32H267.778V353.169ZM271.04 353.169H269.974V346.936H271.04V353.169ZM269.888 345.282C269.888 345.109 269.94 344.963 270.043 344.845C270.151 344.725 270.309 344.666 270.516 344.666C270.723 344.666 270.881 344.725 270.988 344.845C271.096 344.963 271.15 345.109 271.15 345.282C271.15 345.455 271.096 345.599 270.988 345.715C270.881 345.829 270.723 345.887 270.516 345.887C270.309 345.887 270.151 345.829 270.043 345.715C269.94 345.599 269.888 345.455 269.888 345.282ZM274.147 346.936L274.176 347.627C274.633 347.089 275.249 346.82 276.025 346.82C276.897 346.82 277.49 347.155 277.805 347.823C278.013 347.524 278.281 347.281 278.612 347.097C278.946 346.913 279.339 346.82 279.793 346.82C281.16 346.82 281.855 347.544 281.878 348.992V353.169H280.812V349.056C280.812 348.61 280.711 348.278 280.507 348.059C280.303 347.836 279.962 347.725 279.481 347.725C279.086 347.725 278.757 347.844 278.497 348.082C278.235 348.317 278.084 348.633 278.041 349.033V353.169H276.97V349.085C276.97 348.178 276.526 347.725 275.639 347.725C274.94 347.725 274.462 348.022 274.205 348.618V353.169H273.138V346.936H274.147ZM285.042 353.169H283.977V346.936H285.042V353.169ZM283.89 345.282C283.89 345.109 283.942 344.963 284.046 344.845C284.154 344.725 284.311 344.666 284.518 344.666C284.725 344.666 284.883 344.725 284.991 344.845C285.098 344.963 285.152 345.109 285.152 345.282C285.152 345.455 285.098 345.599 284.991 345.715C284.883 345.829 284.725 345.887 284.518 345.887C284.311 345.887 284.154 345.829 284.046 345.715C283.942 345.599 283.89 345.455 283.89 345.282ZM288.593 345.426V346.936H289.757V347.759H288.593V351.625C288.593 351.875 288.645 352.063 288.748 352.19C288.852 352.313 289.029 352.374 289.278 352.374C289.401 352.374 289.57 352.351 289.785 352.305V353.169C289.505 353.246 289.232 353.284 288.967 353.284C288.491 353.284 288.132 353.14 287.89 352.852C287.648 352.564 287.527 352.155 287.527 351.625V347.759H286.392V346.936H287.527V345.426H288.593Z" fill="#383874"/>
    <path d="M229.894 371.628H226.38L225.591 373.817H224.45L227.653 365.429H228.621L231.83 373.817H230.695L229.894 371.628ZM226.714 370.717H229.566L228.137 366.794L226.714 370.717ZM234.193 367.583L234.228 368.367C234.704 367.768 235.326 367.468 236.094 367.468C237.412 367.468 238.076 368.211 238.088 369.698V373.817H237.022V369.692C237.018 369.242 236.915 368.91 236.711 368.695C236.511 368.48 236.198 368.373 235.772 368.373C235.426 368.373 235.123 368.465 234.862 368.649C234.6 368.833 234.397 369.075 234.251 369.375V373.817H233.185V367.583H234.193ZM241.097 367.583L241.131 368.367C241.608 367.768 242.23 367.468 242.998 367.468C244.315 367.468 244.979 368.211 244.991 369.698V373.817H243.926V369.692C243.922 369.242 243.817 368.91 243.614 368.695C243.415 368.48 243.101 368.373 242.675 368.373C242.329 368.373 242.026 368.465 241.765 368.649C241.503 368.833 241.3 369.075 241.154 369.375V373.817H240.088V367.583H241.097ZM250.84 373.201C250.425 373.688 249.817 373.932 249.014 373.932C248.349 373.932 247.843 373.74 247.493 373.356C247.147 372.968 246.973 372.396 246.969 371.639V367.583H248.034V371.611C248.034 372.555 248.418 373.027 249.186 373.027C250.001 373.027 250.542 372.724 250.811 372.117V367.583H251.877V373.817H250.863L250.84 373.201ZM257.743 373.817C257.682 373.694 257.632 373.475 257.594 373.16C257.098 373.675 256.506 373.932 255.819 373.932C255.204 373.932 254.7 373.759 254.304 373.413C253.912 373.064 253.716 372.622 253.716 372.089C253.716 371.439 253.962 370.936 254.454 370.579C254.949 370.218 255.644 370.038 256.539 370.038H257.576V369.548C257.576 369.176 257.465 368.88 257.242 368.661C257.019 368.438 256.691 368.326 256.257 368.326C255.877 368.326 255.558 368.423 255.3 368.614C255.043 368.807 254.915 369.039 254.915 369.312H253.843C253.843 369.001 253.952 368.701 254.171 368.413C254.394 368.121 254.694 367.89 255.07 367.722C255.45 367.553 255.867 367.468 256.32 367.468C257.039 367.468 257.601 367.649 258.008 368.01C258.415 368.367 258.626 368.86 258.642 369.49V372.359C258.642 372.931 258.715 373.387 258.861 373.724V373.817H257.743ZM255.975 373.004C256.309 373.004 256.626 372.918 256.925 372.745C257.225 372.572 257.442 372.348 257.576 372.071V370.792H256.741C255.435 370.792 254.782 371.174 254.782 371.939C254.782 372.273 254.894 372.534 255.116 372.722C255.339 372.91 255.625 373.004 255.975 373.004ZM261.864 373.817H260.798V364.968H261.864V373.817ZM268.446 373.817H267.38V364.968H268.446V373.817ZM271.708 373.817H270.643V367.583H271.708V373.817ZM270.556 365.93C270.556 365.757 270.608 365.611 270.712 365.492C270.819 365.373 270.976 365.313 271.184 365.313C271.392 365.313 271.549 365.373 271.656 365.492C271.764 365.611 271.817 365.757 271.817 365.93C271.817 366.103 271.764 366.247 271.656 366.362C271.549 366.477 271.392 366.535 271.184 366.535C270.976 366.535 270.819 366.477 270.712 366.362C270.608 366.247 270.556 366.103 270.556 365.93ZM274.815 367.583L274.844 368.274C275.301 367.737 275.917 367.468 276.693 367.468C277.565 367.468 278.158 367.802 278.473 368.471C278.68 368.171 278.95 367.929 279.28 367.744C279.614 367.56 280.007 367.468 280.461 367.468C281.828 367.468 282.523 368.192 282.546 369.64V373.817H281.48V369.703C281.48 369.258 281.378 368.926 281.175 368.707C280.972 368.484 280.629 368.373 280.15 368.373C279.754 368.373 279.426 368.492 279.164 368.73C278.903 368.964 278.752 369.281 278.709 369.681V373.817H277.638V369.732C277.638 368.826 277.194 368.373 276.307 368.373C275.608 368.373 275.13 368.67 274.872 369.265V373.817H273.807V367.583H274.815ZM285.711 373.817H284.645V367.583H285.711V373.817ZM284.558 365.93C284.558 365.757 284.61 365.611 284.714 365.492C284.821 365.373 284.979 365.313 285.186 365.313C285.394 365.313 285.551 365.373 285.659 365.492C285.766 365.611 285.82 365.757 285.82 365.93C285.82 366.103 285.766 366.247 285.659 366.362C285.551 366.477 285.394 366.535 285.186 366.535C284.979 366.535 284.821 366.477 284.714 366.362C284.61 366.247 284.558 366.103 284.558 365.93ZM289.261 366.074V367.583H290.425V368.407H289.261V372.273C289.261 372.522 289.313 372.711 289.417 372.837C289.52 372.96 289.697 373.022 289.947 373.022C290.069 373.022 290.238 372.999 290.453 372.953V373.817C290.173 373.893 289.9 373.932 289.635 373.932C289.159 373.932 288.8 373.788 288.558 373.5C288.316 373.212 288.195 372.803 288.195 372.273V368.407H287.06V367.583H288.195V366.074H289.261Z" fill="#383874"/>
    <path d="M313.044 294.178H311.975V287.074L309.825 287.863V286.896L312.88 285.749H313.044V294.178ZM320.369 289.972L320.798 285.789H325.092V286.775H321.703L321.449 289.061C321.856 288.819 322.326 288.699 322.846 288.699C323.61 288.699 324.221 288.952 324.667 289.459C325.12 289.962 325.34 290.644 325.34 291.504C325.34 292.368 325.109 293.05 324.639 293.549C324.175 294.045 323.525 294.292 322.688 294.292C321.947 294.292 321.342 294.087 320.872 293.676C320.403 293.265 320.137 292.697 320.069 291.971H321.081C321.144 292.451 321.313 292.814 321.59 293.06C321.867 293.301 322.235 293.422 322.688 293.422C323.18 293.422 323.57 293.254 323.847 292.916C324.136 292.578 324.277 292.111 324.277 291.516C324.277 290.955 324.124 290.505 323.813 290.168C323.514 289.826 323.106 289.655 322.597 289.655C322.133 289.655 321.771 289.757 321.506 289.96L321.223 290.191L320.369 289.972ZM331.398 291.36H332.564V292.23H331.398V294.178H330.329V292.23H326.506V291.602L330.262 285.789H331.398V291.36ZM327.716 291.36H330.329V287.247L330.199 287.477L327.716 291.36ZM339.176 290.6C339.176 291.848 338.967 292.775 338.537 293.382C338.113 293.989 337.445 294.292 336.54 294.292C335.646 294.292 334.979 293.997 334.549 293.405C334.119 292.81 333.899 291.923 333.882 290.744V289.321C333.882 288.088 334.096 287.172 334.521 286.573C334.951 285.974 335.618 285.674 336.529 285.674C337.428 285.674 338.096 285.964 338.52 286.544C338.95 287.12 339.165 288.011 339.176 289.217V290.6ZM338.113 289.142C338.113 288.24 337.982 287.583 337.734 287.172C337.479 286.757 337.077 286.55 336.529 286.55C335.98 286.55 335.584 286.755 335.335 287.166C335.086 287.577 334.956 288.209 334.951 289.061V290.767C334.951 291.673 335.081 292.343 335.341 292.778C335.607 293.208 336.003 293.422 336.54 293.422C337.066 293.422 337.456 293.219 337.711 292.812C337.965 292.405 338.101 291.763 338.113 290.888V289.142Z" fill="#383874"/>
    <path d="M313.044 314.824H311.975V307.721L309.825 308.511V307.543L312.88 306.397H313.044V314.824ZM325.374 314.824H319.882V314.059L322.784 310.832C323.214 310.345 323.508 309.949 323.672 309.645C323.836 309.338 323.921 309.022 323.921 308.695C323.921 308.257 323.785 307.898 323.519 307.618C323.259 307.337 322.903 307.197 322.461 307.197C321.93 307.197 321.517 307.349 321.223 307.652C320.929 307.952 320.787 308.371 320.787 308.908H319.718C319.718 308.136 319.967 307.512 320.465 307.036C320.962 306.559 321.63 306.321 322.461 306.321C323.242 306.321 323.859 306.527 324.311 306.938C324.764 307.345 324.99 307.889 324.99 308.569C324.99 309.394 324.464 310.377 323.412 311.518L321.166 313.955H325.374V314.824ZM330.403 314.824H329.328V307.721L327.179 308.511V307.543L330.233 306.397H330.403V314.824ZM339.176 311.247C339.176 312.495 338.967 313.423 338.537 314.03C338.113 314.637 337.445 314.94 336.54 314.94C335.646 314.94 334.979 314.644 334.549 314.053C334.119 313.457 333.899 312.57 333.882 311.391V309.968C333.882 308.735 334.096 307.819 334.521 307.22C334.951 306.621 335.618 306.321 336.529 306.321C337.428 306.321 338.096 306.611 338.52 307.191C338.95 307.768 339.165 308.658 339.176 309.864V311.247ZM338.113 309.79C338.113 308.887 337.982 308.23 337.734 307.819C337.479 307.404 337.077 307.197 336.529 307.197C335.98 307.197 335.584 307.403 335.335 307.813C335.086 308.225 334.956 308.856 334.951 309.709V311.414C334.951 312.32 335.081 312.991 335.341 313.425C335.607 313.855 336.003 314.07 336.54 314.07C337.066 314.07 337.456 313.866 337.711 313.46C337.965 313.052 338.101 312.411 338.113 311.535V309.79Z" fill="#383874"/>
    <path d="M313.044 334.488H311.975V327.385L309.825 328.174V327.207L312.88 326.06H313.044V334.488ZM323.383 334.488H322.314V327.385L320.165 328.174V327.207L323.214 326.06H323.383V334.488ZM330.403 334.488H329.328V327.385L327.179 328.174V327.207L330.233 326.06H330.403V334.488ZM335.465 329.776H336.269C336.772 329.768 337.168 329.635 337.456 329.378C337.745 329.121 337.886 328.773 337.886 328.336C337.886 327.352 337.4 326.861 336.416 326.861C335.957 326.861 335.59 326.993 335.313 327.258C335.041 327.519 334.905 327.867 334.905 328.301H333.836C333.836 327.636 334.08 327.085 334.56 326.648C335.052 326.206 335.669 325.985 336.416 325.985C337.208 325.985 337.83 326.195 338.277 326.613C338.729 327.032 338.955 327.613 338.955 328.359C338.955 328.724 338.831 329.077 338.593 329.419C338.361 329.76 338.039 330.016 337.632 330.185C338.096 330.331 338.452 330.573 338.701 330.911C338.955 331.249 339.08 331.661 339.08 332.149C339.08 332.902 338.831 333.499 338.344 333.941C337.852 334.383 337.213 334.603 336.421 334.603C335.635 334.603 334.996 334.39 334.498 333.964C334.006 333.538 333.763 332.975 333.763 332.276H334.832C334.832 332.718 334.979 333.071 335.267 333.336C335.556 333.601 335.941 333.733 336.421 333.733C336.936 333.733 337.332 333.599 337.603 333.33C337.875 333.061 338.016 332.676 338.016 332.172C338.016 331.685 337.864 331.31 337.564 331.049C337.264 330.788 336.834 330.653 336.269 330.646H335.465V329.776Z" fill="#383874"/>
    <path d="M313.626 349.482C313.406 349.747 313.14 349.96 312.829 350.122C312.518 350.283 312.178 350.364 311.811 350.364C311.33 350.364 310.906 350.244 310.544 350.006C310.187 349.768 309.91 349.434 309.718 349.004C309.52 348.57 309.424 348.092 309.424 347.569C309.424 347.009 309.526 346.504 309.741 346.054C309.956 345.605 310.255 345.261 310.651 345.023C311.042 344.785 311.5 344.666 312.02 344.666C312.852 344.666 313.502 344.977 313.977 345.599C314.458 346.218 314.701 347.063 314.701 348.134V348.445C314.701 350.077 314.379 351.27 313.728 352.023C313.083 352.772 312.111 353.156 310.81 353.175H310.6V352.276H310.827C311.709 352.261 312.382 352.032 312.857 351.591C313.327 351.145 313.587 350.442 313.626 349.482ZM311.986 349.482C312.342 349.482 312.671 349.373 312.97 349.154C313.276 348.935 313.496 348.664 313.632 348.341V347.915C313.632 347.216 313.479 346.648 313.18 346.21C312.874 345.772 312.49 345.553 312.026 345.553C311.556 345.553 311.183 345.734 310.894 346.095C310.612 346.452 310.47 346.924 310.47 347.512C310.47 348.084 310.606 348.556 310.878 348.929C311.155 349.298 311.522 349.482 311.986 349.482ZM317.049 348.964L317.478 344.781H321.777V345.766H318.383L318.129 348.054C318.536 347.811 319.006 347.69 319.526 347.69C320.29 347.69 320.901 347.944 321.347 348.451C321.8 348.954 322.02 349.636 322.02 350.496C322.02 351.36 321.789 352.042 321.319 352.541C320.855 353.037 320.205 353.285 319.368 353.285C318.627 353.285 318.021 353.079 317.552 352.668C317.082 352.257 316.817 351.688 316.749 350.963H317.761C317.824 351.443 317.993 351.806 318.27 352.051C318.547 352.294 318.915 352.415 319.368 352.415C319.86 352.415 320.25 352.246 320.533 351.907C320.816 351.57 320.957 351.103 320.957 350.507C320.957 349.947 320.804 349.498 320.493 349.159C320.193 348.818 319.786 348.647 319.283 348.647C318.813 348.647 318.451 348.749 318.186 348.952L317.903 349.183L317.049 348.964ZM328.842 349.592C328.842 350.84 328.627 351.768 328.197 352.374C327.773 352.981 327.106 353.285 326.201 353.285C325.307 353.285 324.645 352.989 324.215 352.397C323.785 351.802 323.559 350.915 323.548 349.736V348.313C323.548 347.08 323.757 346.164 324.187 345.565C324.611 344.966 325.279 344.666 326.189 344.666C327.094 344.666 327.756 344.956 328.18 345.536C328.61 346.112 328.825 347.003 328.842 348.209V349.592ZM327.773 348.134C327.773 347.232 327.649 346.575 327.394 346.164C327.139 345.749 326.738 345.542 326.189 345.542C325.646 345.542 325.245 345.747 324.996 346.158C324.747 346.569 324.617 347.201 324.611 348.054V349.758C324.611 350.665 324.741 351.335 325.001 351.769C325.267 352.2 325.669 352.415 326.201 352.415C326.727 352.415 327.117 352.211 327.371 351.804C327.626 351.396 327.762 350.755 327.773 349.879V348.134Z" fill="#383874"/>
    <path d="M313.626 370.13C313.406 370.395 313.14 370.608 312.829 370.77C312.518 370.931 312.178 371.011 311.811 371.011C311.33 371.011 310.906 370.892 310.544 370.654C310.187 370.416 309.91 370.082 309.718 369.652C309.52 369.218 309.424 368.74 309.424 368.217C309.424 367.656 309.526 367.151 309.741 366.702C309.956 366.252 310.255 365.909 310.651 365.671C311.042 365.433 311.5 365.314 312.02 365.314C312.852 365.314 313.502 365.625 313.977 366.247C314.458 366.865 314.701 367.71 314.701 368.782V369.093C314.701 370.725 314.379 371.918 313.728 372.671C313.083 373.42 312.111 373.804 310.81 373.823H310.6V372.924H310.827C311.709 372.909 312.382 372.68 312.857 372.239C313.327 371.793 313.587 371.09 313.626 370.13ZM311.986 370.13C312.342 370.13 312.671 370.02 312.97 369.801C313.276 369.582 313.496 369.312 313.632 368.989V368.563C313.632 367.864 313.479 367.296 313.18 366.858C312.874 366.42 312.49 366.201 312.026 366.201C311.556 366.201 311.183 366.381 310.894 366.742C310.612 367.1 310.47 367.572 310.47 368.16C310.47 368.732 310.606 369.205 310.878 369.577C311.155 369.946 311.522 370.13 311.986 370.13ZM318.112 369.104H318.909C319.413 369.096 319.809 368.964 320.097 368.707C320.386 368.449 320.533 368.102 320.533 367.664C320.533 366.681 320.041 366.189 319.062 366.189C318.598 366.189 318.231 366.322 317.954 366.587C317.682 366.848 317.546 367.195 317.546 367.63H316.483C316.483 366.965 316.72 366.414 317.207 365.976C317.693 365.535 318.31 365.314 319.062 365.314C319.854 365.314 320.471 365.523 320.923 365.941C321.37 366.361 321.596 366.942 321.596 367.687C321.596 368.052 321.477 368.405 321.24 368.747C321.002 369.089 320.686 369.344 320.278 369.513C320.736 369.659 321.093 369.901 321.342 370.239C321.596 370.577 321.721 370.99 321.721 371.478C321.721 372.231 321.477 372.828 320.985 373.27C320.493 373.711 319.854 373.932 319.068 373.932C318.282 373.932 317.637 373.719 317.145 373.293C316.653 372.866 316.404 372.304 316.404 371.605H317.478C317.478 372.046 317.62 372.4 317.908 372.664C318.197 372.93 318.581 373.062 319.068 373.062C319.583 373.062 319.973 372.928 320.25 372.659C320.522 372.39 320.657 372.004 320.657 371.501C320.657 371.013 320.505 370.639 320.21 370.378C319.911 370.116 319.475 369.982 318.909 369.974H318.112V369.104ZM329.074 373.817H323.582V373.051L326.483 369.824C326.913 369.337 327.207 368.941 327.371 368.638C327.535 368.331 327.62 368.014 327.62 367.687C327.62 367.249 327.485 366.891 327.219 366.61C326.953 366.329 326.602 366.189 326.161 366.189C325.629 366.189 325.216 366.341 324.922 366.644C324.628 366.944 324.487 367.363 324.487 367.9H323.418C323.418 367.129 323.666 366.504 324.159 366.028C324.662 365.552 325.329 365.314 326.161 365.314C326.942 365.314 327.558 365.519 328.011 365.93C328.463 366.337 328.689 366.881 328.689 367.56C328.689 368.386 328.163 369.37 327.111 370.51L324.866 372.947H329.074V373.817Z" fill="#383874"/>
    <defs>
        <linearGradient id="paint0_linear_574_4586" x1="370.789" y1="97.9462" x2="16.0688" y2="98.2493" gradientUnits="userSpaceOnUse">
            <stop stop-color="#E323FF"/>
            <stop offset="1" stop-color="#7517F8"/>
        </linearGradient>
        <linearGradient id="paint1_linear_574_4586" x1="218.39" y1="368.33" x2="208.803" y2="368.338" gradientUnits="userSpaceOnUse">
            <stop stop-color="#E323FF"/>
            <stop offset="1" stop-color="#7517F8"/>
        </linearGradient>
    </defs>
</svg>
