<svg viewBox="0 0 18 18">
    <path fill-rule="evenodd" clip-rule="evenodd" d="M3.75 3.375H14.25C14.8713 3.375 15.375 3.87868 15.375 4.5V11.25C15.375 11.8713 14.8713 12.375 14.25 12.375H3.75C3.12868 12.375 2.625 11.8713 2.625 11.25V4.5C2.625 3.87868 3.12868 3.375 3.75 3.375ZM1.5 4.5C1.5 3.25736 2.50736 2.25 3.75 2.25H14.25C15.4927 2.25 16.5 3.25736 16.5 4.5V11.25C16.5 12.4927 15.4927 13.5 14.25 13.5H9.5625V14.625H12V15.75H6V14.625H8.4375V13.5H3.75C2.50736 13.5 1.5 12.4927 1.5 11.25V4.5ZM4.88672 10.5023V5.77734H5.77772V7.68083H7.8432V5.77734H8.7342V10.5023H7.8432V8.50432H5.77772V10.5023H4.88672ZM9.57345 10.5023V5.77734H10.9977C12.476 5.77734 13.5695 6.55359 13.5695 8.13982C13.5695 9.72607 12.476 10.5023 10.9977 10.5023H9.57345ZM10.4644 9.67882H11.0585C12.017 9.67882 12.665 9.16582 12.665 8.13982C12.665 7.11385 12.017 6.60085 11.0585 6.60085H10.4644V9.67882Z"/>
</svg>
